<mxfile host="app.diagrams.net" agent="Mozilla/5.0 (Windows NT 10.0; Win64; x64) AppleWebKit/537.36 (KHTML, like Gecko) Chrome/133.0.0.0 Safari/537.36 Edg/133.0.0.0" version="26.0.12" pages="2">
  <diagram name="第 1 页" id="DZ_V79C6-O_901xPB75k">
    <mxGraphModel dx="1159" dy="613" grid="1" gridSize="10" guides="1" tooltips="1" connect="1" arrows="1" fold="1" page="1" pageScale="1" pageWidth="827" pageHeight="1169" math="0" shadow="0">
      <root>
        <mxCell id="0" />
        <mxCell id="1" parent="0" />
        <mxCell id="TiLNrquFtoO1n3jIcFdX-23" style="edgeStyle=orthogonalEdgeStyle;rounded=0;orthogonalLoop=1;jettySize=auto;html=1;entryX=0.5;entryY=0;entryDx=0;entryDy=0;" edge="1" parent="1" source="TiLNrquFtoO1n3jIcFdX-7" target="TiLNrquFtoO1n3jIcFdX-9">
          <mxGeometry relative="1" as="geometry" />
        </mxCell>
        <mxCell id="TiLNrquFtoO1n3jIcFdX-7" value="重定向至对应首页" style="whiteSpace=wrap;strokeWidth=2;" vertex="1" parent="1">
          <mxGeometry x="920" y="58" width="120" height="54" as="geometry" />
        </mxCell>
        <mxCell id="TiLNrquFtoO1n3jIcFdX-24" style="edgeStyle=orthogonalEdgeStyle;rounded=0;orthogonalLoop=1;jettySize=auto;html=1;entryX=0;entryY=0.5;entryDx=0;entryDy=0;" edge="1" parent="1" source="TiLNrquFtoO1n3jIcFdX-8" target="TiLNrquFtoO1n3jIcFdX-9">
          <mxGeometry relative="1" as="geometry" />
        </mxCell>
        <mxCell id="TiLNrquFtoO1n3jIcFdX-8" value="提示错误信息" style="whiteSpace=wrap;strokeWidth=2;" vertex="1" parent="1">
          <mxGeometry x="740" y="170" width="120" height="54" as="geometry" />
        </mxCell>
        <mxCell id="TiLNrquFtoO1n3jIcFdX-9" value="结束" style="whiteSpace=wrap;strokeWidth=2;" vertex="1" parent="1">
          <mxGeometry x="920" y="170" width="120" height="54" as="geometry" />
        </mxCell>
        <mxCell id="TiLNrquFtoO1n3jIcFdX-21" style="edgeStyle=orthogonalEdgeStyle;rounded=0;orthogonalLoop=1;jettySize=auto;html=1;entryX=0.5;entryY=0;entryDx=0;entryDy=0;" edge="1" parent="1" source="TiLNrquFtoO1n3jIcFdX-20" target="TiLNrquFtoO1n3jIcFdX-8">
          <mxGeometry relative="1" as="geometry" />
        </mxCell>
        <mxCell id="TiLNrquFtoO1n3jIcFdX-27" style="edgeStyle=orthogonalEdgeStyle;rounded=0;orthogonalLoop=1;jettySize=auto;html=1;entryX=0;entryY=0.5;entryDx=0;entryDy=0;" edge="1" parent="1" source="TiLNrquFtoO1n3jIcFdX-20" target="TiLNrquFtoO1n3jIcFdX-7">
          <mxGeometry relative="1" as="geometry" />
        </mxCell>
        <mxCell id="TiLNrquFtoO1n3jIcFdX-20" value="是否正确" style="rhombus;whiteSpace=wrap;html=1;strokeWidth=2;" vertex="1" parent="1">
          <mxGeometry x="740" y="60" width="120" height="50" as="geometry" />
        </mxCell>
        <mxCell id="TiLNrquFtoO1n3jIcFdX-29" style="edgeStyle=orthogonalEdgeStyle;rounded=0;orthogonalLoop=1;jettySize=auto;html=1;entryX=0;entryY=0.5;entryDx=0;entryDy=0;" edge="1" parent="1" source="TiLNrquFtoO1n3jIcFdX-28" target="TiLNrquFtoO1n3jIcFdX-20">
          <mxGeometry relative="1" as="geometry" />
        </mxCell>
        <mxCell id="TiLNrquFtoO1n3jIcFdX-28" value="账号密码比对" style="whiteSpace=wrap;strokeWidth=2;" vertex="1" parent="1">
          <mxGeometry x="560" y="58" width="120" height="54" as="geometry" />
        </mxCell>
        <mxCell id="TiLNrquFtoO1n3jIcFdX-31" value="提示错误信息" style="whiteSpace=wrap;strokeWidth=2;" vertex="1" parent="1">
          <mxGeometry x="740" y="170" width="120" height="54" as="geometry" />
        </mxCell>
        <mxCell id="TiLNrquFtoO1n3jIcFdX-33" style="edgeStyle=orthogonalEdgeStyle;rounded=0;orthogonalLoop=1;jettySize=auto;html=1;entryX=0;entryY=0.5;entryDx=0;entryDy=0;" edge="1" parent="1" source="TiLNrquFtoO1n3jIcFdX-32" target="TiLNrquFtoO1n3jIcFdX-28">
          <mxGeometry relative="1" as="geometry" />
        </mxCell>
        <mxCell id="TiLNrquFtoO1n3jIcFdX-32" value="选择用户表" style="whiteSpace=wrap;strokeWidth=2;" vertex="1" parent="1">
          <mxGeometry x="380" y="58" width="120" height="54" as="geometry" />
        </mxCell>
        <mxCell id="TiLNrquFtoO1n3jIcFdX-35" style="edgeStyle=orthogonalEdgeStyle;rounded=0;orthogonalLoop=1;jettySize=auto;html=1;entryX=0;entryY=0.5;entryDx=0;entryDy=0;" edge="1" parent="1" source="TiLNrquFtoO1n3jIcFdX-34" target="TiLNrquFtoO1n3jIcFdX-32">
          <mxGeometry relative="1" as="geometry" />
        </mxCell>
        <mxCell id="TiLNrquFtoO1n3jIcFdX-34" value="用户输入&#xa;账号,密码" style="whiteSpace=wrap;strokeWidth=2;" vertex="1" parent="1">
          <mxGeometry x="220" y="58" width="120" height="54" as="geometry" />
        </mxCell>
      </root>
    </mxGraphModel>
  </diagram>
  <diagram id="8ymXGIZxZWETdhBdV8T0" name="第 2 页">
    <mxGraphModel dx="1159" dy="613" grid="1" gridSize="10" guides="1" tooltips="1" connect="1" arrows="1" fold="1" page="1" pageScale="1" pageWidth="827" pageHeight="1169" math="0" shadow="0">
      <root>
        <mxCell id="0" />
        <mxCell id="1" parent="0" />
      </root>
    </mxGraphModel>
  </diagram>
</mxfile>
